<?xml version="1.0" encoding="utf-8"?>
<!-- Generator: Adobe Illustrator 16.0.0, SVG Export Plug-In . SVG Version: 6.00 Build 0)  -->
<!DOCTYPE svg PUBLIC "-//W3C//DTD SVG 1.1//EN" "http://www.w3.org/Graphics/SVG/1.1/DTD/svg11.dtd">
<svg version="1.1" id="Layer_1" xmlns="http://www.w3.org/2000/svg" xmlns:xlink="http://www.w3.org/1999/xlink" x="0px" y="0px"
	 width="512px" height="512px" viewBox="0 0 512 512" enable-background="new 0 0 512 512" xml:space="preserve">
<g>
	<g>
		<circle fill="#3bb34a" cx="173.602" cy="256.19" r="27.529"/>
		<circle fill="#3bb34a" cx="256.19" cy="256.19" r="27.529"/>
		<circle fill="#3bb34a" cx="338.778" cy="256.19" r="27.529"/>
	</g>
	<g>
		<path fill="#3bb34a" d="M155.059,412c-7.046,0-14.092-2.688-19.467-8.063L7.121,275.467c-10.751-10.752-10.751-28.183,0-38.933
			l128.471-128.47c10.751-10.75,28.182-10.75,38.933,0c10.749,10.75,10.749,28.181,0,38.932L65.521,256l109.004,109.004
			c10.749,10.751,10.749,28.181,0,38.932C169.148,409.312,162.105,412,155.059,412z"/>
		<path fill="#3bb34a" d="M356.941,412c7.046,0,14.092-2.688,19.467-8.063l128.47-128.47c10.752-10.752,10.752-28.183,0-38.933
			l-128.47-128.47c-10.752-10.75-28.182-10.75-38.934,0c-10.748,10.75-10.748,28.181,0,38.932L446.479,256L337.475,365.004
			c-10.748,10.751-10.748,28.181,0,38.932C342.852,409.312,349.896,412,356.941,412z"/>
	</g>
</g>
</svg>
