<?xml version="1.0" encoding="utf-8"?> <!-- Generator: IcoMoon.io --> <!DOCTYPE svg PUBLIC "-//W3C//DTD SVG 1.1//EN" "http://www.w3.org/Graphics/SVG/1.1/DTD/svg11.dtd"> <svg version="1.1" id="Layer_1" xmlns="http://www.w3.org/2000/svg" xmlns:xlink="http://www.w3.org/1999/xlink" x="0px" y="0px" width="48px" height="48px" viewBox="0 0 48 48" enable-background="new 0 0 16 16" xml:space="preserve" fill="#3bb34a"> <path d="M 48.00,38.994c0.00,4.971-4.029,9.00-9.00,9.00l-5.268,0.00 l 2.64-2.64 c 0.966-0.972, 1.68-2.124, 2.115-3.36L39.00,41.994 c 1.659,0.00, 3.00-1.341, 3.00-3.00L42.00,11.997 L6.00,11.997 l0.00,26.997 c0.00,1.659, 1.344,3.00, 3.00,3.00l0.51,0.00 c 0.438,1.242, 1.152,2.397, 2.124,3.369l 2.634,2.631L9.00,47.994 c-4.971,0.00-9.00-4.029-9.00-9.00L0.00,8.997 c0.00-4.971, 4.029-9.00, 9.00-9.00l30.00,0.00 c 4.971,0.00, 9.00,4.029, 9.00,9.00L48.00,38.994 z M 9.00,2.997c-1.656,0.00-3.00,1.344-3.00,3.00s 1.344,3.00, 3.00,3.00s 3.00-1.344, 3.00-3.00S 10.656,2.997, 9.00,2.997z M 18.00,35.994l3.00,0.00 L21.00,26.997 c0.00-1.659, 1.344-3.00, 3.00-3.00 c 1.659,0.00, 3.00,1.341, 3.00,3.00l0.00,8.997 l3.00,0.00 c 1.212,0.00, 2.31,0.732, 2.772,1.854c 0.462,1.125, 0.204,2.415-0.651,3.27l-6.00,6.00C 25.536,47.703, 24.768,48.00, 24.00,48.00 s-1.536-0.297-2.121-0.882l-6.00-6.00c-0.858-0.855-1.113-2.151-0.651-3.27C 15.69,36.726, 16.788,35.994, 18.00,35.994z" ></path></svg>