<?xml version="1.0" encoding="utf-8"?>
<!-- Generator: Adobe Illustrator 16.0.0, SVG Export Plug-In . SVG Version: 6.00 Build 0)  -->
<!DOCTYPE svg PUBLIC "-//W3C//DTD SVG 1.1//EN" "http://www.w3.org/Graphics/SVG/1.1/DTD/svg11.dtd">
<svg version="1.1" id="Layer_1" xmlns="http://www.w3.org/2000/svg" xmlns:xlink="http://www.w3.org/1999/xlink" x="0px" y="0px"
	 width="200px" height="116.476px" viewBox="0 0 200 116.476" enable-background="new 0 0 200 116.476" xml:space="preserve">
<g>
	<path fill="#354860" d="M182.621,116.476H53.906L0,56.652L10.074,6.875C10.88,2.892,14.414,0,18.478,0h116.25L200,65.267
		l-8.972,44.337C190.22,113.584,186.68,116.476,182.621,116.476z M56.451,110.759h126.17c1.356,0,2.534-0.965,2.803-2.294
		l8.368-41.323L132.361,5.716H18.478c-1.354,0-2.532,0.963-2.799,2.292L6.174,54.966L56.451,110.759z"/>
</g>
<g>
	<path fill="#354860" d="M42.168,47.421c0.438-2.185,0.109-3.888-0.988-5.104c-1.094-1.218-3.269-2.431-6.523-3.64
		c-4.569-1.563-7.866-3.49-9.89-5.773c-2.024-2.286-2.641-5.409-1.848-9.373c0.731-3.715,2.563-6.563,5.494-8.544
		c2.931-1.981,6.493-2.973,10.688-2.973c4.569,0,8.12,1.245,10.657,3.74c2.535,2.493,3.333,5.898,2.393,10.216l-0.092,0.189h-7.199
		c0.48-2.419,0.078-4.368-1.206-5.836c-1.281-1.471-3.207-2.208-5.772-2.208c-1.794,0-3.417,0.516-4.867,1.549
		c-1.452,1.033-2.323,2.3-2.613,3.802c-0.46,2.255-0.162,3.924,0.89,5.008c1.056,1.086,3.408,2.336,7.06,3.757
		c4.485,1.585,7.682,3.501,9.591,5.742c1.909,2.244,2.467,5.379,1.675,9.404c-0.771,3.883-2.629,6.772-5.571,8.67
		c-2.942,1.898-6.583,2.847-10.922,2.847c-4.528,0-8.33-1.136-11.405-3.411c-3.079-2.272-4.087-5.789-3.021-10.545l0.062-0.187
		h7.199c-0.606,3.011-0.048,5.105,1.675,6.28c1.719,1.175,3.958,1.761,6.712,1.761c1.814,0,3.495-0.511,5.039-1.53
		C40.926,50.241,41.855,48.963,42.168,47.421z"/>
	<path fill="#354860" d="M68.895,46.313l0.251,3.007l0.187,0.03l1.219-2.973l15.213-33.708h7.98L71.368,58.238h-7.104l-7.731-45.568
		h7.95L68.895,46.313z"/>
	<path fill="#354860" d="M122.603,52.063c-1.501,1.756-3.68,3.333-6.526,4.731c-2.848,1.401-6.294,2.099-10.343,2.099
		c-4.8,0-8.59-1.761-11.376-5.287c-2.786-3.528-3.637-7.992-2.551-13.396l1.909-9.515c1.169-5.862,3.626-10.443,7.372-13.739
		c3.743-3.296,8.131-4.943,13.158-4.943c4.678,0,8.162,1.32,10.45,3.958c2.301,2.641,3.261,6.077,2.881,10.312l-0.089,0.19h-7.106
		c0.084-2.61-0.413-4.653-1.491-6.135c-1.071-1.482-2.992-2.222-5.772-2.222c-2.626,0-5.099,1.194-7.417,3.581
		c-2.313,2.387-3.825,5.363-4.535,8.927l-1.909,9.568c-0.773,3.919-0.449,6.998,0.969,9.24c1.421,2.241,3.662,3.36,6.73,3.36
		c1.96,0,3.694-0.282,5.213-0.846c1.508-0.561,2.63-1.208,3.361-1.939l1.848-9.139h-8.075l1.125-5.694h15.553L122.603,52.063z"/>
</g>
<g>
	<path fill="#354860" d="M72.061,73.746c1.409-1.707,3.005-3.022,4.792-3.944c1.787-0.921,3.677-1.382,5.667-1.382
		c3.185,0,5.554,1.134,7.114,3.396c1.561,2.266,1.885,5.705,0.975,10.315l-4.419,22.085h-7.763l4.418-22.023
		c0.541-2.813,0.449-4.739-0.276-5.767s-2.127-1.54-4.206-1.54c-1.279,0-2.535,0.346-3.769,1.038
		c-1.233,0.692-2.339,1.646-3.313,2.857l-5.066,25.435h-7.762l7.014-35.146h7.115L72.061,73.746z"/>
	<path fill="#354860" d="M107.273,104.896c-4.504,0-7.92-1.641-10.248-4.935c-2.328-3.294-3.082-7.459-2.258-12.505l0.195-1.301
		c0.845-5.309,2.886-9.597,6.124-12.862c3.234-3.271,6.934-4.893,11.093-4.874c4.304,0,7.442,1.446,9.401,4.339
		c1.959,2.886,2.563,6.726,1.803,11.517l-0.747,4.645h-20.3c-0.304,2.953,0.075,5.303,1.137,7.039
		c1.06,1.737,2.824,2.607,5.295,2.607c1.837,0,3.528-0.268,5.063-0.793c1.541-0.529,3.03-1.272,4.482-2.223l1.626,5.183
		c-1.408,1.172-3.195,2.154-5.36,2.958C112.414,104.495,109.98,104.896,107.273,104.896z M111.17,74.752
		c-1.645,0-3.154,0.781-4.528,2.322c-1.377,1.551-2.39,3.517-3.037,5.899l0.064,0.162h12.212l0.128-0.815
		c0.347-2.311,0.14-4.152-0.613-5.515C114.636,75.438,113.229,74.752,111.17,74.752z"/>
	<path fill="#354860" d="M144.787,94.67c0.2-1.24-0.101-2.25-0.894-3.037c-0.792-0.793-2.423-1.496-4.918-2.099
		c-3.768-0.889-6.536-2.154-8.302-3.796c-1.764-1.652-2.416-3.869-1.964-6.666c0.48-3.048,2.043-5.588,4.695-7.614
		c2.651-2.025,5.906-3.038,9.764-3.038c3.853,0,6.833,1.066,8.942,3.202c2.11,2.135,2.87,4.737,2.268,7.808l-0.067,0.201h-7.47
		c0.234-1.496-0.044-2.753-0.848-3.774c-0.805-1.016-2.055-1.524-3.774-1.524c-1.597,0-2.925,0.431-3.986,1.301
		c-1.065,0.866-1.691,1.904-1.886,3.115c-0.196,1.262,0.066,2.244,0.792,2.958c0.726,0.715,2.344,1.352,4.856,1.916
		c4.009,0.91,6.867,2.193,8.598,3.846c1.72,1.665,2.355,3.92,1.898,6.777c-0.525,3.272-2.145,5.862-4.879,7.783
		c-2.726,1.908-6.119,2.868-10.194,2.868c-4.098,0-7.236-1.183-9.425-3.555c-2.188-2.372-2.975-5.042-2.366-8.007l0.062-0.194h7.247
		c-0.263,2.031,0.15,3.518,1.233,4.449c1.083,0.933,2.513,1.396,4.287,1.396c1.729,0,3.171-0.396,4.298-1.183
		C143.894,97.016,144.575,95.965,144.787,94.67z"/>
	<path fill="#354860" d="M174.287,60.529l-1.72,8.541h5.811l-1.167,5.849h-5.815l-3.864,19.421
		c-0.324,1.558-0.268,2.619,0.178,3.188c0.441,0.559,1.14,0.837,2.094,0.837c0.52,0,1.084-0.033,1.693-0.111
		c0.603-0.072,1.144-0.178,1.624-0.307l-0.357,5.777c-0.827,0.368-1.782,0.659-2.876,0.866c-1.094,0.205-2.228,0.306-3.394,0.306
		c-2.579,0-4.528-0.864-5.851-2.601c-1.317-1.73-1.613-4.382-0.876-7.956l3.868-19.421h-4.906l1.172-5.849h4.901l1.725-8.541
		H174.287z"/>
</g>
</svg>
