<?xml version="1.0" encoding="utf-8"?>
<!-- Generator: Adobe Illustrator 19.0.0, SVG Export Plug-In . SVG Version: 6.00 Build 0)  -->
<svg version="1.1" id="Layer_1" xmlns="http://www.w3.org/2000/svg" xmlns:xlink="http://www.w3.org/1999/xlink" x="0px" y="0px"
	 viewBox="0 0 200 200" style="enable-background:new 0 0 200 200;" xml:space="preserve">
<style type="text/css">
	.st0{fill:#D7E9B7;}
	.st1{fill:#3BB34A;}
</style>
<g id="XMLID_1356_">
	<g id="XMLID_1375_">
		<path id="XMLID_145_" class="st0" d="M43.9,152.5c-18.5,0-33.6-15.1-33.6-33.6c0-18.5,15.1-33.6,33.6-33.6s33.6,15.1,33.6,33.6
			C77.6,137.4,62.5,152.5,43.9,152.5z M43.9,87.2c-17.4,0-31.6,14.2-31.6,31.6s14.2,31.6,31.6,31.6s31.6-14.2,31.6-31.6
			S61.4,87.2,43.9,87.2z"/>
	</g>
	<g id="XMLID_1440_">
		<path id="XMLID_142_" class="st0" d="M63.9,40.1c-6.7,0-12.2-5.5-12.2-12.2s5.5-12.2,12.2-12.2s12.2,5.5,12.2,12.2
			S70.6,40.1,63.9,40.1z M63.9,17.7c-5.6,0-10.2,4.6-10.2,10.2s4.6,10.2,10.2,10.2s10.2-4.6,10.2-10.2S69.5,17.7,63.9,17.7z"/>
	</g>
	<g id="XMLID_1441_">
		<path id="XMLID_139_" class="st0" d="M87.3,33c-6.7,0-12.2-5.5-12.2-12.2S80.5,8.6,87.3,8.6c6.7,0,12.2,5.5,12.2,12.2
			S94,33,87.3,33z M87.3,10.6c-5.6,0-10.2,4.6-10.2,10.2S81.6,31,87.3,31s10.2-4.6,10.2-10.2S92.9,10.6,87.3,10.6z"/>
	</g>
	<g id="XMLID_39_">
		<path id="XMLID_136_" class="st0" d="M149.8,48.5c-6.7,0-12.2-5.5-12.2-12.2s5.5-12.2,12.2-12.2S162,29.5,162,36.3
			S156.5,48.5,149.8,48.5z M149.8,26.1c-5.6,0-10.2,4.6-10.2,10.2s4.6,10.2,10.2,10.2S160,41.9,160,36.3S155.4,26.1,149.8,26.1z"/>
	</g>
	<g id="XMLID_1410_">
		<path id="XMLID_133_" class="st0" d="M44.3,83.8c-13.2,0-23.9-10.7-23.9-23.9C20.4,46.7,31.1,36,44.3,36
			c13.2,0,23.9,10.7,23.9,23.9C68.2,73.1,57.5,83.8,44.3,83.8z M44.3,38c-12.1,0-21.9,9.8-21.9,21.9c0,12.1,9.8,21.9,21.9,21.9
			c12.1,0,21.9-9.8,21.9-21.9C66.2,47.8,56.4,38,44.3,38z"/>
	</g>
	<g id="XMLID_1376_">
		<path id="XMLID_130_" class="st0" d="M83.3,124.3c-2.9,0-5.3-2.4-5.3-5.3s2.4-5.3,5.3-5.3s5.3,2.4,5.3,5.3S86.2,124.3,83.3,124.3z
			 M83.3,115.7c-1.8,0-3.3,1.5-3.3,3.3s1.5,3.3,3.3,3.3s3.3-1.5,3.3-3.3S85.1,115.7,83.3,115.7z"/>
	</g>
	<g id="XMLID_1377_">
		<path id="XMLID_127_" class="st0" d="M13.4,99.9c-2.9,0-5.3-2.4-5.3-5.3s2.4-5.3,5.3-5.3s5.3,2.4,5.3,5.3S16.3,99.9,13.4,99.9z
			 M13.4,91.4c-1.8,0-3.3,1.5-3.3,3.3c0,1.8,1.5,3.3,3.3,3.3s3.3-1.5,3.3-3.3C16.7,92.9,15.2,91.4,13.4,91.4z"/>
	</g>
	<g id="XMLID_1385_">
		<path id="XMLID_124_" class="st0" d="M15,88.9c-2.9,0-5.3-2.4-5.3-5.3s2.4-5.3,5.3-5.3s5.3,2.4,5.3,5.3S18,88.9,15,88.9z M15,80.4
			c-1.8,0-3.3,1.5-3.3,3.3c0,1.8,1.5,3.3,3.3,3.3s3.3-1.5,3.3-3.3C18.3,81.8,16.9,80.4,15,80.4z"/>
	</g>
	<g id="XMLID_1400_">
		<path id="XMLID_121_" class="st0" d="M17.7,78.4c-2.9,0-5.3-2.4-5.3-5.3s2.4-5.3,5.3-5.3s5.3,2.4,5.3,5.3S20.6,78.4,17.7,78.4z
			 M17.7,69.9c-1.8,0-3.3,1.5-3.3,3.3s1.5,3.3,3.3,3.3s3.3-1.5,3.3-3.3S19.5,69.9,17.7,69.9z"/>
	</g>
	<g id="XMLID_1405_">
		<path id="XMLID_118_" class="st0" d="M26.2,88.9c-2.9,0-5.3-2.4-5.3-5.3s2.4-5.3,5.3-5.3s5.3,2.4,5.3,5.3S29.1,88.9,26.2,88.9z
			 M26.2,80.4c-1.8,0-3.3,1.5-3.3,3.3c0,1.8,1.5,3.3,3.3,3.3s3.3-1.5,3.3-3.3C29.5,81.8,28,80.4,26.2,80.4z"/>
	</g>
	<g id="XMLID_1411_">
		<path id="XMLID_115_" class="st0" d="M73.1,60.1c-2.9,0-5.3-2.4-5.3-5.3s2.4-5.3,5.3-5.3s5.3,2.4,5.3,5.3S76,60.1,73.1,60.1z
			 M73.1,51.5c-1.8,0-3.3,1.5-3.3,3.3c0,1.8,1.5,3.3,3.3,3.3c1.8,0,3.3-1.5,3.3-3.3C76.4,53,74.9,51.5,73.1,51.5z"/>
	</g>
	<g id="XMLID_1416_">
		<path id="XMLID_112_" class="st0" d="M81.3,52.3c-2.9,0-5.3-2.4-5.3-5.3c0-2.9,2.4-5.3,5.3-5.3s5.3,2.4,5.3,5.3
			C86.6,49.9,84.2,52.3,81.3,52.3z M81.3,43.7c-1.8,0-3.3,1.5-3.3,3.3c0,1.8,1.5,3.3,3.3,3.3s3.3-1.5,3.3-3.3
			C84.6,45.2,83.1,43.7,81.3,43.7z"/>
	</g>
	<g id="XMLID_1425_">
		<path id="XMLID_109_" class="st0" d="M89.8,44.4c-2.9,0-5.3-2.4-5.3-5.3c0-2.9,2.4-5.3,5.3-5.3s5.3,2.4,5.3,5.3
			C95.1,42,92.8,44.4,89.8,44.4z M89.8,35.8c-1.8,0-3.3,1.5-3.3,3.3c0,1.8,1.5,3.3,3.3,3.3s3.3-1.5,3.3-3.3
			C93.1,37.3,91.7,35.8,89.8,35.8z"/>
	</g>
	<g id="XMLID_1446_">
		<path id="XMLID_106_" class="st0" d="M104.2,29.8c-2.9,0-5.3-2.4-5.3-5.3s2.4-5.3,5.3-5.3s5.3,2.4,5.3,5.3S107.1,29.8,104.2,29.8z
			 M104.2,21.3c-1.8,0-3.3,1.5-3.3,3.3s1.5,3.3,3.3,3.3c1.8,0,3.3-1.5,3.3-3.3S106,21.3,104.2,21.3z"/>
	</g>
	<g id="XMLID_1455_">
		<path id="XMLID_103_" class="st0" d="M103,18.3c-2.9,0-5.3-2.4-5.3-5.3s2.4-5.3,5.3-5.3s5.3,2.4,5.3,5.3S105.9,18.3,103,18.3z
			 M103,9.8c-1.8,0-3.3,1.5-3.3,3.3s1.5,3.3,3.3,3.3c1.8,0,3.3-1.5,3.3-3.3S104.8,9.8,103,9.8z"/>
	</g>
	<g id="XMLID_1460_">
		<path id="XMLID_100_" class="st0" d="M112.1,23.2c-2.9,0-5.3-2.4-5.3-5.3s2.4-5.3,5.3-5.3s5.3,2.4,5.3,5.3S115.1,23.2,112.1,23.2z
			 M112.1,14.6c-1.8,0-3.3,1.5-3.3,3.3c0,1.8,1.5,3.3,3.3,3.3s3.3-1.5,3.3-3.3C115.4,16.1,113.9,14.6,112.1,14.6z"/>
	</g>
	<g id="XMLID_1465_">
		<path id="XMLID_97_" class="st0" d="M122.2,20.9c-2.9,0-5.3-2.4-5.3-5.3s2.4-5.3,5.3-5.3s5.3,2.4,5.3,5.3S125.1,20.9,122.2,20.9z
			 M122.2,12.3c-1.8,0-3.3,1.5-3.3,3.3s1.5,3.3,3.3,3.3c1.8,0,3.3-1.5,3.3-3.3S124,12.3,122.2,12.3z"/>
	</g>
	<g id="XMLID_1470_">
		<path id="XMLID_94_" class="st0" d="M130,27.8c-2.9,0-5.3-2.4-5.3-5.3s2.4-5.3,5.3-5.3c2.9,0,5.3,2.4,5.3,5.3S132.9,27.8,130,27.8
			z M130,19.3c-1.8,0-3.3,1.5-3.3,3.3s1.5,3.3,3.3,3.3c1.8,0,3.3-1.5,3.3-3.3S131.8,19.3,130,19.3z"/>
	</g>
	<g id="XMLID_1475_">
		<path id="XMLID_91_" class="st0" d="M140.4,27.5c-2.9,0-5.3-2.4-5.3-5.3s2.4-5.3,5.3-5.3c2.9,0,5.3,2.4,5.3,5.3
			S143.3,27.5,140.4,27.5z M140.4,18.9c-1.8,0-3.3,1.5-3.3,3.3s1.5,3.3,3.3,3.3s3.3-1.5,3.3-3.3S142.2,18.9,140.4,18.9z"/>
	</g>
	<g id="XMLID_1430_">
		<path id="XMLID_88_" class="st0" d="M79.4,41.5c-2.9,0-5.3-2.4-5.3-5.3c0-2.9,2.4-5.3,5.3-5.3s5.3,2.4,5.3,5.3
			C84.7,39.2,82.3,41.5,79.4,41.5z M79.4,33c-1.8,0-3.3,1.5-3.3,3.3c0,1.8,1.5,3.3,3.3,3.3c1.8,0,3.3-1.5,3.3-3.3
			C82.7,34.5,81.2,33,79.4,33z"/>
	</g>
	<g id="XMLID_1435_">
		<path id="XMLID_85_" class="st0" d="M70.1,49.9c-2.9,0-5.3-2.4-5.3-5.3c0-2.9,2.4-5.3,5.3-5.3s5.3,2.4,5.3,5.3
			C75.4,47.5,73.1,49.9,70.1,49.9z M70.1,41.3c-1.8,0-3.3,1.5-3.3,3.3c0,1.8,1.5,3.3,3.3,3.3c1.8,0,3.3-1.5,3.3-3.3
			C73.4,42.8,72,41.3,70.1,41.3z"/>
	</g>
	<g id="XMLID_44_">
		<path id="XMLID_82_" class="st0" d="M46.8,36.2c-2.9,0-5.3-2.4-5.3-5.3s2.4-5.3,5.3-5.3c2.9,0,5.3,2.4,5.3,5.3
			S49.7,36.2,46.8,36.2z M46.8,27.7c-1.8,0-3.3,1.5-3.3,3.3c0,1.8,1.5,3.3,3.3,3.3c1.8,0,3.3-1.5,3.3-3.3
			C50.1,29.1,48.6,27.7,46.8,27.7z"/>
	</g>
	<g id="XMLID_1355_">
		<path id="XMLID_79_" class="st0" d="M156.4,115.5c-18.5,0-33.6-15.1-33.6-33.6c0-18.5,15.1-33.6,33.6-33.6S190,63.3,190,81.9
			C190,100.4,174.9,115.5,156.4,115.5z M156.4,50.2c-17.4,0-31.6,14.2-31.6,31.6c0,17.4,14.2,31.6,31.6,31.6
			c17.4,0,31.6-14.2,31.6-31.6C188,64.4,173.8,50.2,156.4,50.2z"/>
	</g>
	<g id="XMLID_1354_">
		<path id="XMLID_76_" class="st0" d="M136.4,185.1c-6.7,0-12.2-5.5-12.2-12.2c0-6.7,5.5-12.2,12.2-12.2c6.7,0,12.2,5.5,12.2,12.2
			C148.6,179.6,143.1,185.1,136.4,185.1z M136.4,162.7c-5.6,0-10.2,4.6-10.2,10.2s4.6,10.2,10.2,10.2s10.2-4.6,10.2-10.2
			S142,162.7,136.4,162.7z"/>
	</g>
	<g id="XMLID_1353_">
		<path id="XMLID_73_" class="st0" d="M113.1,192.2c-6.7,0-12.2-5.5-12.2-12.2s5.5-12.2,12.2-12.2c6.7,0,12.2,5.5,12.2,12.2
			S119.8,192.2,113.1,192.2z M113.1,169.8c-5.6,0-10.2,4.6-10.2,10.2s4.6,10.2,10.2,10.2s10.2-4.6,10.2-10.2
			S118.7,169.8,113.1,169.8z"/>
	</g>
	<g id="XMLID_1352_">
		<path id="XMLID_70_" class="st0" d="M50.5,176.7c-6.7,0-12.2-5.5-12.2-12.2c0-6.7,5.5-12.2,12.2-12.2s12.2,5.5,12.2,12.2
			C62.7,171.2,57.3,176.7,50.5,176.7z M50.5,154.3c-5.6,0-10.2,4.6-10.2,10.2s4.6,10.2,10.2,10.2s10.2-4.6,10.2-10.2
			S56.2,154.3,50.5,154.3z"/>
	</g>
	<g id="XMLID_1351_">
		<path id="XMLID_67_" class="st0" d="M156,164.7c-13.2,0-23.9-10.7-23.9-23.9c0-13.2,10.7-23.9,23.9-23.9s23.9,10.7,23.9,23.9
			C179.9,154,169.2,164.7,156,164.7z M156,119c-12.1,0-21.9,9.8-21.9,21.9c0,12.1,9.8,21.9,21.9,21.9c12.1,0,21.9-9.8,21.9-21.9
			C177.9,128.8,168.1,119,156,119z"/>
	</g>
	<g id="XMLID_1350_">
		<path id="XMLID_64_" class="st0" d="M117,87c-2.9,0-5.3-2.4-5.3-5.3s2.4-5.3,5.3-5.3s5.3,2.4,5.3,5.3S119.9,87,117,87z M117,78.5
			c-1.8,0-3.3,1.5-3.3,3.3c0,1.8,1.5,3.3,3.3,3.3c1.8,0,3.3-1.5,3.3-3.3C120.3,79.9,118.8,78.5,117,78.5z"/>
	</g>
	<g id="XMLID_1349_">
		<path id="XMLID_61_" class="st0" d="M186.9,111.4c-2.9,0-5.3-2.4-5.3-5.3s2.4-5.3,5.3-5.3c2.9,0,5.3,2.4,5.3,5.3
			S189.9,111.4,186.9,111.4z M186.9,102.8c-1.8,0-3.3,1.5-3.3,3.3s1.5,3.3,3.3,3.3c1.8,0,3.3-1.5,3.3-3.3S188.8,102.8,186.9,102.8z"
			/>
	</g>
	<g id="XMLID_1056_">
		<path id="XMLID_58_" class="st0" d="M185.3,122.4c-2.9,0-5.3-2.4-5.3-5.3s2.4-5.3,5.3-5.3c2.9,0,5.3,2.4,5.3,5.3
			S188.2,122.4,185.3,122.4z M185.3,113.8c-1.8,0-3.3,1.5-3.3,3.3s1.5,3.3,3.3,3.3s3.3-1.5,3.3-3.3S187.1,113.8,185.3,113.8z"/>
	</g>
	<g id="XMLID_710_">
		<path id="XMLID_55_" class="st0" d="M182.7,132.9c-2.9,0-5.3-2.4-5.3-5.3c0-2.9,2.4-5.3,5.3-5.3c2.9,0,5.3,2.4,5.3,5.3
			C187.9,130.5,185.6,132.9,182.7,132.9z M182.7,124.3c-1.8,0-3.3,1.5-3.3,3.3s1.5,3.3,3.3,3.3s3.3-1.5,3.3-3.3
			S184.5,124.3,182.7,124.3z"/>
	</g>
	<g id="XMLID_412_">
		<path id="XMLID_50_" class="st0" d="M174.1,122.4c-2.9,0-5.3-2.4-5.3-5.3s2.4-5.3,5.3-5.3c2.9,0,5.3,2.4,5.3,5.3
			S177,122.4,174.1,122.4z M174.1,113.8c-1.8,0-3.3,1.5-3.3,3.3s1.5,3.3,3.3,3.3c1.8,0,3.3-1.5,3.3-3.3S175.9,113.8,174.1,113.8z"/>
	</g>
	<g id="XMLID_411_">
		<path id="XMLID_37_" class="st0" d="M127.2,151.2c-2.9,0-5.3-2.4-5.3-5.3c0-2.9,2.4-5.3,5.3-5.3c2.9,0,5.3,2.4,5.3,5.3
			C132.5,148.9,130.1,151.2,127.2,151.2z M127.2,142.7c-1.8,0-3.3,1.5-3.3,3.3s1.5,3.3,3.3,3.3c1.8,0,3.3-1.5,3.3-3.3
			S129,142.7,127.2,142.7z"/>
	</g>
	<g id="XMLID_54_">
		<path id="XMLID_33_" class="st0" d="M119.1,159c-2.9,0-5.3-2.4-5.3-5.3c0-2.9,2.4-5.3,5.3-5.3s5.3,2.4,5.3,5.3
			C124.3,156.7,122,159,119.1,159z M119.1,150.5c-1.8,0-3.3,1.5-3.3,3.3s1.5,3.3,3.3,3.3c1.8,0,3.3-1.5,3.3-3.3
			S120.9,150.5,119.1,150.5z"/>
	</g>
	<g id="XMLID_53_">
		<path id="XMLID_30_" class="st0" d="M110.5,167c-2.9,0-5.3-2.4-5.3-5.3c0-2.9,2.4-5.3,5.3-5.3s5.3,2.4,5.3,5.3
			C115.8,164.6,113.4,167,110.5,167z M110.5,158.4c-1.8,0-3.3,1.5-3.3,3.3c0,1.8,1.5,3.3,3.3,3.3s3.3-1.5,3.3-3.3
			C113.8,159.9,112.3,158.4,110.5,158.4z"/>
	</g>
	<g id="XMLID_49_">
		<path id="XMLID_27_" class="st0" d="M96.2,181.5c-2.9,0-5.3-2.4-5.3-5.3c0-2.9,2.4-5.3,5.3-5.3s5.3,2.4,5.3,5.3
			C101.5,179.1,99.1,181.5,96.2,181.5z M96.2,172.9c-1.8,0-3.3,1.5-3.3,3.3s1.5,3.3,3.3,3.3s3.3-1.5,3.3-3.3S98,172.9,96.2,172.9z"
			/>
	</g>
	<g id="XMLID_48_">
		<path id="XMLID_24_" class="st0" d="M97.3,193c-2.9,0-5.3-2.4-5.3-5.3c0-2.9,2.4-5.3,5.3-5.3c2.9,0,5.3,2.4,5.3,5.3
			C102.6,190.6,100.2,193,97.3,193z M97.3,184.4c-1.8,0-3.3,1.5-3.3,3.3s1.5,3.3,3.3,3.3c1.8,0,3.3-1.5,3.3-3.3
			S99.1,184.4,97.3,184.4z"/>
	</g>
	<g id="XMLID_47_">
		<path id="XMLID_21_" class="st0" d="M88.2,188.2c-2.9,0-5.3-2.4-5.3-5.3c0-2.9,2.4-5.3,5.3-5.3s5.3,2.4,5.3,5.3
			C93.5,185.8,91.1,188.2,88.2,188.2z M88.2,179.6c-1.8,0-3.3,1.5-3.3,3.3s1.5,3.3,3.3,3.3c1.8,0,3.3-1.5,3.3-3.3
			S90,179.6,88.2,179.6z"/>
	</g>
	<g id="XMLID_45_">
		<path id="XMLID_17_" class="st0" d="M78.1,190.4c-2.9,0-5.3-2.4-5.3-5.3c0-2.9,2.4-5.3,5.3-5.3s5.3,2.4,5.3,5.3
			C83.4,188.1,81,190.4,78.1,190.4z M78.1,181.9c-1.8,0-3.3,1.5-3.3,3.3c0,1.8,1.5,3.3,3.3,3.3c1.8,0,3.3-1.5,3.3-3.3
			C81.4,183.3,79.9,181.9,78.1,181.9z"/>
	</g>
	<g id="XMLID_43_">
		<path id="XMLID_14_" class="st0" d="M70.4,183.5c-2.9,0-5.3-2.4-5.3-5.3s2.4-5.3,5.3-5.3s5.3,2.4,5.3,5.3S73.3,183.5,70.4,183.5z
			 M70.4,174.9c-1.8,0-3.3,1.5-3.3,3.3c0,1.8,1.5,3.3,3.3,3.3c1.8,0,3.3-1.5,3.3-3.3C73.7,176.4,72.2,174.9,70.4,174.9z"/>
	</g>
	<g id="XMLID_42_">
		<path id="XMLID_11_" class="st0" d="M60,183.9c-2.9,0-5.3-2.4-5.3-5.3c0-2.9,2.4-5.3,5.3-5.3c2.9,0,5.3,2.4,5.3,5.3
			C65.3,181.5,62.9,183.9,60,183.9z M60,175.3c-1.8,0-3.3,1.5-3.3,3.3c0,1.8,1.5,3.3,3.3,3.3c1.8,0,3.3-1.5,3.3-3.3
			C63.3,176.8,61.8,175.3,60,175.3z"/>
	</g>
	<g id="XMLID_41_">
		<path id="XMLID_8_" class="st0" d="M120.9,169.8c-2.9,0-5.3-2.4-5.3-5.3c0-2.9,2.4-5.3,5.3-5.3s5.3,2.4,5.3,5.3
			C126.2,167.4,123.8,169.8,120.9,169.8z M120.9,161.2c-1.8,0-3.3,1.5-3.3,3.3c0,1.8,1.5,3.3,3.3,3.3s3.3-1.5,3.3-3.3
			C124.2,162.7,122.7,161.2,120.9,161.2z"/>
	</g>
	<g id="XMLID_40_">
		<path id="XMLID_5_" class="st0" d="M130.2,161.4c-2.9,0-5.3-2.4-5.3-5.3c0-2.9,2.4-5.3,5.3-5.3c2.9,0,5.3,2.4,5.3,5.3
			C135.5,159,133.1,161.4,130.2,161.4z M130.2,152.8c-1.8,0-3.3,1.5-3.3,3.3s1.5,3.3,3.3,3.3s3.3-1.5,3.3-3.3S132,152.8,130.2,152.8
			z"/>
	</g>
	<g id="XMLID_36_">
		<path id="XMLID_2_" class="st0" d="M153.6,175.1c-2.9,0-5.3-2.4-5.3-5.3s2.4-5.3,5.3-5.3c2.9,0,5.3,2.4,5.3,5.3
			S156.5,175.1,153.6,175.1z M153.6,166.5c-1.8,0-3.3,1.5-3.3,3.3c0,1.8,1.5,3.3,3.3,3.3c1.8,0,3.3-1.5,3.3-3.3
			C156.8,168,155.4,166.5,153.6,166.5z"/>
	</g>
</g>
<g id="XMLID_19_">
	<g id="XMLID_698_">
		<path id="XMLID_169_" class="st1" d="M100.3,195.1c-52.3,0-94.8-42.5-94.8-94.8S48,5.5,100.3,5.5c52.3,0,94.8,42.5,94.8,94.8
			S152.6,195.1,100.3,195.1z M100.3,7.5c-51.2,0-92.8,41.6-92.8,92.8c0,51.2,41.6,92.8,92.8,92.8s92.8-41.6,92.8-92.8
			C193.1,49.1,151.5,7.5,100.3,7.5z"/>
	</g>
	<g id="XMLID_416_">
		<path id="XMLID_166_" class="st1" d="M81.7,101.1c-10.7,0-19.3-8.7-19.3-19.3s8.7-19.3,19.3-19.3S101,71.1,101,81.8
			S92.4,101.1,81.7,101.1z M81.7,64.4c-9.5,0-17.3,7.8-17.3,17.3s7.8,17.3,17.3,17.3S99,91.3,99,81.8S91.3,64.4,81.7,64.4z"/>
	</g>
	<g id="XMLID_415_">
		<path id="XMLID_163_" class="st1" d="M81.7,175.3c-10.7,0-19.3-8.7-19.3-19.3s8.7-19.3,19.3-19.3S101,145.3,101,156
			S92.4,175.3,81.7,175.3z M81.7,138.7c-9.5,0-17.3,7.8-17.3,17.3s7.8,17.3,17.3,17.3S99,165.6,99,156S91.3,138.7,81.7,138.7z"/>
	</g>
	<g id="XMLID_413_">
		<path id="XMLID_160_" class="st1" d="M118.8,138.2c-10.7,0-19.3-8.7-19.3-19.3s8.7-19.3,19.3-19.3c10.7,0,19.3,8.7,19.3,19.3
			S129.5,138.2,118.8,138.2z M118.8,101.6c-9.5,0-17.3,7.8-17.3,17.3s7.8,17.3,17.3,17.3s17.3-7.8,17.3-17.3
			S128.4,101.6,118.8,101.6z"/>
	</g>
	<g id="XMLID_1358_">
		<path id="XMLID_157_" class="st1" d="M118.8,63.9c-10.7,0-19.3-8.7-19.3-19.3s8.7-19.3,19.3-19.3c10.7,0,19.3,8.7,19.3,19.3
			S129.5,63.9,118.8,63.9z M118.8,27.3c-9.5,0-17.3,7.8-17.3,17.3S109.3,62,118.8,62s17.3-7.8,17.3-17.3S128.4,27.3,118.8,27.3z"/>
	</g>
	<g id="XMLID_408_">
		<path id="XMLID_154_" class="st1" d="M94.7,170c-0.3,0-0.5-0.1-0.7-0.3l-25.9-25.9c-0.4-0.4-0.4-1,0-1.4l37.1-37.1
			c0.4-0.4,1-0.4,1.4,0l25.9,25.9c0.2,0.2,0.3,0.4,0.3,0.7s-0.1,0.5-0.3,0.7l-37.1,37.1C95.2,169.8,95,170,94.7,170z M70.2,143
			l24.5,24.5l35.7-35.7l-24.5-24.5L70.2,143z"/>
	</g>
	<g id="XMLID_1371_">
		<path id="XMLID_151_" class="st1" d="M94.6,95.7c-0.3,0-0.5-0.1-0.7-0.3L67.9,69.5c-0.4-0.4-0.4-1,0-1.4l37.1-37.1
			c0.4-0.4,1-0.4,1.4,0l25.9,25.9c0.2,0.2,0.3,0.4,0.3,0.7s-0.1,0.5-0.3,0.7L95.3,95.4C95.1,95.6,94.8,95.7,94.6,95.7z M70.1,68.8
			l24.5,24.5l35.7-35.7l-24.5-24.5L70.1,68.8z"/>
	</g>
	<g id="XMLID_1372_">
		<path id="XMLID_148_" class="st1" d="M105.8,132.9c-0.3,0-0.5-0.1-0.7-0.3L67.9,95.5c-0.4-0.4-0.4-1,0-1.4l25.9-25.9
			c0.4-0.4,1-0.4,1.4,0l37.1,37.1c0.2,0.2,0.3,0.4,0.3,0.7c0,0.3-0.1,0.5-0.3,0.7l-25.9,25.9C106.3,132.8,106,132.9,105.8,132.9z
			 M70.1,94.8l35.7,35.7l24.5-24.5L94.6,70.3L70.1,94.8z"/>
	</g>
</g>
</svg>
