<?xml version="1.0" encoding="utf-8"?> <!-- Generator: IcoMoon.io --> <!DOCTYPE svg PUBLIC "-//W3C//DTD SVG 1.1//EN" "http://www.w3.org/Graphics/SVG/1.1/DTD/svg11.dtd"> <svg version="1.1" id="Layer_1" xmlns="http://www.w3.org/2000/svg" xmlns:xlink="http://www.w3.org/1999/xlink" x="0px" y="0px" width="48px" height="48px" viewBox="0 0 48 48" enable-background="new 0 0 16 16" xml:space="preserve" fill="#3bb34a"> <path d="M 45.00,21.00l-3.00,0.00 c-0.105,0.00-0.192,0.051-0.297,0.06 c-0.456-2.769-1.527-5.316-3.093-7.506c 0.075-0.063, 0.168-0.087, 0.24-0.159l 2.121-2.121c 1.173-1.173, 1.173-3.069,0.00-4.242 s-3.072-1.173-4.245,0.00L 34.605,9.15c-0.069,0.069-0.096,0.165-0.159,0.24C 32.259,7.821, 29.709,6.753, 26.94,6.297 C 26.949,6.192, 27.00,6.105, 27.00,6.00L27.00,3.00 c0.00-1.656-1.341-3.00-3.00-3.00S 21.00,1.344, 21.00,3.00l0.00,3.00 c0.00,0.105, 0.051,0.192, 0.06,0.297 C 18.291,6.753, 15.741,7.821, 13.554,9.39C 13.491,9.315, 13.464,9.222, 13.395,9.15L 11.274,7.029c-1.173-1.173-3.072-1.173-4.245,0.00 c-1.17,1.173-1.17,3.069,0.00,4.242l 2.124,2.121C 9.222,13.464, 9.312,13.491, 9.39,13.554C 7.821,15.744, 6.753,18.291, 6.297,21.06 C 6.192,21.051, 6.105,21.00, 6.00,21.00L3.00,21.00 C 1.341,21.00,0.00,22.344,0.00,24.00s 1.341,3.00, 3.00,3.00l3.00,0.00 c 0.105,0.00, 0.192-0.048, 0.297-0.06 c 0.456,2.769, 1.527,5.316, 3.093,7.506c-0.075,0.063-0.168,0.087-0.237,0.159l-2.124,2.121c-1.17,1.173-1.17,3.072,0.00,4.242 c 1.173,1.173, 3.072,1.173, 4.245,0.00l 2.121-2.121c 0.069-0.069, 0.096-0.165, 0.159-0.24c 2.187,1.569, 4.737,2.637, 7.506,3.096 C 21.051,41.808, 21.00,41.895, 21.00,42.00l0.00,3.00 c0.00,1.659, 1.341,3.00, 3.00,3.00s 3.00-1.341, 3.00-3.00l0.00,-3.00 c0.00-0.105-0.051-0.192-0.06-0.297 c 2.769-0.459, 5.316-1.527, 7.506-3.096c 0.063,0.075, 0.087,0.171, 0.159,0.24l 2.121,2.121c 1.173,1.173, 3.072,1.173, 4.245,0.00 c 1.173-1.17, 1.173-3.069,0.00-4.242l-2.121-2.121c-0.072-0.069-0.165-0.093-0.24-0.159c 1.566-2.19, 2.637-4.737, 3.093-7.506 C 41.808,26.952, 41.895,27.00, 42.00,27.00l3.00,0.00 c 1.659,0.00, 3.00-1.344, 3.00-3.00S 46.659,21.00, 45.00,21.00z M 24.00,33.00c-4.971,0.00-9.00-4.032-9.00-9.00c0.00-4.971, 4.029-9.00, 9.00-9.00s 9.00,4.029, 9.00,9.00 C 33.00,28.968, 28.971,33.00, 24.00,33.00z" ></path></svg>